<svg xmlns="http://www.w3.org/2000/svg" viewBox="0 0 598.84 599.08"><defs><style>.cls-1{fill:#e7c658;}</style></defs><title>Asset 2</title><g id="Layer_2" data-name="Layer 2"><g id="Layer_1-2" data-name="Layer 1"><path class="cls-1" d="M507.7,465.77c10.55,10.88,9.81,20.17-1.52,24.68,2.11,4.58,4.73,9,6.22,13.83,2.4,7.72-4.17,10.09-9.08,8.23-4.39-1.66-8.45-4.21-12.67-6.38-6.16,11.33-13.67,11.94-25.54,1.46-1.42,2.12-2.74,4.28-4.24,6.31-7.49,10.17-18.15,16-29.42,20.73-7.34,3.07-15.17,5-22.53,8-8.83,3.63-17.46,7.79-26.07,11.93-10.47,5-21.26,9.3-32.82,10.58-6.67.74-13.52-.21-20.59-.4.18,4.43-.14,9.8-4.41,14-4.44,4.32-9.34,4.68-14.77,1.68-.9,3.74-1.49,7.38-2.69,10.81-1.37,3.93-3.57,8.14-8.24,7.9-4.48-.23-6.7-4.33-8-8.34-1-3.24-1.5-6.65-2.22-10-13.45,5.81-20.91-6.13-19.41-16.79-2.91.53-5.74,1.29-8.62,1.53-13.6,1.15-26.25-2.6-38.42-8.11-7.6-3.44-14.77-7.84-22.44-11.09-6.77-2.86-14-4.64-21-7C166.9,535,154.74,530,144.88,521c-4.35-4-7.9-8.78-12-13.39-2.81,4.14-7,7.27-13,7.13-6.28-.15-10.05-3.44-11.62-8.55-4.6,2.07-9,4.59-13.8,6.08-6.29,2-10.61-2.6-8.41-8.93,1.55-4.46,4.25-8.51,6.39-12.66-10.74-3.44-12-17.82-1.24-25.57-2.18-1.47-4.32-2.8-6.33-4.3C74.72,453.2,68.78,442.53,64,431.09c-2.3-5.55-4.73-11.15-6.1-17-3.09-13.16-10.79-24.19-16-36.35-5.42-12.61-9.66-25.46-8.61-39.44.22-2.93,1-5.82,1.55-9.05-5.47.22-10.79-.19-15-4.5-4.36-4.51-4.32-9.44-1.88-14.27-4.59-1.5-9.45-2.36-13.55-4.61-6.19-3.38-5.91-10.11.49-13.26,4-2,8.55-2.73,13.05-4.09-2.36-4.75-2.51-10,1.86-14.43,4-4,9-5.43,15-4.39-.56-3.12-1.34-6.05-1.58-9-1.1-13.59,2.72-26.19,8.21-38.37a156.34,156.34,0,0,1,8.24-16.54c5.7-9.45,7.3-20.31,11.13-30.4,4.36-11.49,9.31-22.65,17.76-31.74,3.75-4,8.4-7.23,12.6-10.77-10.74-9.58-10.07-19,1.32-24.86-2.06-4.56-4.59-8.92-6-13.62C84.53,87.9,89,84,95.72,86a31.06,31.06,0,0,1,6.39,2.79,70.86,70.86,0,0,1,6,4.3c1.83-5.77,5.57-9.15,11.75-9.39,6-.23,10.31,2.69,13.87,7.74,8.6-16.35,23.33-24.19,39.1-29.61a412.68,412.68,0,0,0,48.6-20.15c12-5.93,24.92-9.58,38.64-8.57,3.06.23,6.07,1,9.43,1.53-.23-5.41.22-10.75,4.49-14.87,4.46-4.3,9.42-4.44,14.81-1.6a97.51,97.51,0,0,1,1.91-9.66,17.33,17.33,0,0,1,3.11-5.8c3.42-4.22,9.65-3.49,12.21,1.83,2,4.11,2.79,8.78,4.13,13.24,12.65-3.27,20.46,3.35,19,16.57,4.95-.45,9.92-1.3,14.89-1.27,11.8.07,22.77,3.86,33.35,8.68,7.38,3.36,14.32,7.73,21.78,10.87,7.11,3,14.63,5,22,7.44,12.51,4.14,24.38,9.59,34.15,18.62,4,3.65,7,8.25,10.45,12.35,8.92-11.52,22.26-8.36,25.09,1.4,4.41-2,8.75-4.6,13.45-6,6.38-1.95,10.7,2.56,8.49,8.84-1.57,4.46-4.28,8.52-6.57,12.93,5.24,1.56,8.55,5.37,8.78,11.52.22,5.94-2.62,10.33-7.83,13.82,16.16,8.5,24.22,22.83,29.38,38.4,6,18.12,13.9,35.3,21.84,52.56,5.15,11.21,8.23,23.1,7.23,35.66-.24,3-1,6-1.58,9,15.84,1.47,21.68,8.11,16.57,19.49,3,.59,6.15.76,8.92,1.83a20.44,20.44,0,0,1,7.65,4.7c3.13,3.42,1.76,8.47-3,10.67-4.14,1.9-8.75,2.78-13.18,4.12,3.54,12.5-3.07,20.27-16.46,19.09.42,4.95,1.22,9.94,1.2,14.92-.07,11.82-3.92,22.77-8.78,33.34-3.39,7.37-7.69,14.33-10.85,21.79-2.76,6.53-4.37,13.54-6.72,20.25-4.42,12.6-9.4,25-18.64,34.94C516.8,458.55,512,462,507.7,465.77ZM46.24,312.87c-.45-.12-.28,0-.21-.07q1.83-1.24,3.64-2.5c8.06-5.63,16.8-9.07,26.82-7.92,6.67.77,12.38,3.49,16.17,9.3,5.37,8.24,4.69,19.91-1.52,28.17-5.06,6.74-17.12,10.25-26.07,7.67C56.4,345,51.9,339.08,51,330c-5.49,6.54-4.61,13.62,2.11,18.4,2.54,1.81,4.24,4.08,3.33,7.15-.4,1.38-2.37,3.45-3.29,3.29-2.36-.43-4.53-1.9-6.76-3-.29-.14-.43-.59-.64-.9-5.62-8.51-3.12-23.25,5-29.4A4.69,4.69,0,0,0,52,323.8c3.68-8,10.26-10.24,18.4-9.45a12.94,12.94,0,0,1,11.13,9.45,11.39,11.39,0,0,1-3.81,12.3,8.38,8.38,0,0,1-10.27,0c-3.43-2.9-4.68-6.83-2.62-9.83.91-1.32,2.74-2.17,4.33-2.78.45-.17,2.22,1.33,2.15,1.91-.2,1.63-1,3.17-1.85,5.33,1.17,2,3.76,2.29,6.11,1.32,2.62-1.08,2.44-3.73,2-6.16a9.3,9.3,0,0,0-7.66-7.11c-5.27-.7-9.71,1.35-12,5.53-2.94,5.43-.48,12,6,15.86,6.12,3.65,12.54,4.12,18.47.14,5.65-3.79,7.82-9.86,7.43-16.47-.44-7.58-4.88-12.45-12-14.77-9-2.94-21.87,1.19-28.36,8.57-9.58,10.88-10.7,23.57-8.29,37,2.06,11.47,7.74,21.53,13.33,31.54,4,7.23,8,14.37,9.62,22.65a76.71,76.71,0,0,0,3.65,11.6c4.58,12.48,9.8,24.62,19.69,34,12.76,12.13,33.75,11.9,45.14-.65,5-5.5,7.08-12.15,4-19.16s-9.11-10.88-17.1-10.87c-10.93,0-18.76,11.63-15,22.24,2.11,6,7.68,8.4,13.8,5.92,5.94-2.41,8.43-8.39,5.89-14-1.14-2.51-2.91-4.34-5.74-3.56a5.16,5.16,0,0,0-3.89,5.43c2.22.88,4,1.35,5.41,2.32.36.24-.06,2.38-.7,3.18-1.54,1.91-3.61,1.76-5.7.72-3.17-1.58-4.5-5-3.68-9.65a8.35,8.35,0,0,1,7.16-6.53c8.55-.65,13.92,7.75,12.78,14.33-1.67,9.68-12.39,16-21.75,13.18a9.8,9.8,0,0,0-3.58-.58c-7.13.7-12.79-2.44-17.67-7.05-3.62-3.43-6.51-7.54-6.4-12.93.08-3.69,2.84-6.48,6-6.22,2.81.24,5.08,3.63,4.28,7.09-2.11,9.14,3,14.17,11.44,15.91a14.44,14.44,0,0,1-1.66-2.87c-1.12-3.85-3.23-7.84-2.94-11.62a23,23,0,0,1,34.74-18c11.58,7,17.71,20.93,7.45,34.29a30.45,30.45,0,0,1-15.19,10.3c-4.51,1.46-9.2,2.36-13.23,3.37,1.55,3.88,3.11,7.82,4.71,11.74a2.71,2.71,0,0,0,1.06,1.45c4.3,1.82,8.64,3.54,12.67,5.17.85-3.71,1.44-7.79,2.74-11.62,3.26-9.6,8.68-17.68,18.7-21.14,17.19-5.94,32.76,13.1,29.1,27.49-2.78,10.93-13.51,20.3-24,19.4-3.84-.33-7.5-2.75-11-4.13,1.18,7.35,7.11,11.71,14.76,10.52,1.1-.17,2.42-.48,3.32-.06,1.54.71,3.64,1.72,4,3,.45,1.53-.12,4.42-1.25,5.13-2,1.27-5,2.25-7.18,1.76-9.74-2.15-18.18-13.93-16.92-22.89a9.25,9.25,0,0,0-.56-4c-2.7-8.3,1.7-18,9.83-21.15,5-1.94,9.89-1.34,13.87,2.31a10.4,10.4,0,0,1,3.17,11.15c-1,3.44-4.19,5.63-8.21,5.72s-7-1.57-7.77-4.95a7.16,7.16,0,0,1,1.15-4.71c.39-.63,2.42-.88,3.27-.45s1.33,1.9,1.71,3c.16.47-.32,1.16-.55,1.85,3.43.53,5.76-.82,6.42-3.61s-1.39-4.86-4-6c-5.09-2.23-11.5.46-13.69,5.66-2.36,5.59,0,11.87,5.19,14.11,5.74,2.46,13.85,1.06,18.27-3.62,4.81-5.09,6.26-11.14,3.53-17.8s-7.3-11.41-14.74-11.93c-9.75-.68-15.6,5.46-19.86,13.13-9,16.14-.45,33.85,11.29,43.23,9.18,7.33,19.94,11.6,31.07,14.84,11.83,3.44,23.34,7.34,34.09,13.64a133.48,133.48,0,0,0,23.4,10.62c16.23,5.67,34.39,3.24,45.36-10.73,5.38-6.85,8.1-14.47,7-23.18-1.13-9.15-10.9-14.85-21.7-12.87-6.88,1.26-13,8.66-13.49,16.22a16.42,16.42,0,0,0,11.64,16.3c4.91,1.42,10.63-1.84,12.29-7,1.77-5.47-.8-11.78-5.68-13.35-2.58-.83-5.44-1.31-7.14,1.79-1.57,2.85-.15,4.89,1.13,6.12a37.41,37.41,0,0,1,5.69-1.87c.37-.06,1.68,1.94,1.44,2.41a22.88,22.88,0,0,1-3.52,4.76,3,3,0,0,1-2.15.41c-3.89-.32-6.26-2.66-7.74-6.07a7.46,7.46,0,0,1,1.53-8.86c5.66-5.8,16.45-3.73,20.06,3.85,3.82,8,.19,18.58-7.74,22.7a17.43,17.43,0,0,0-2.75,2.22c-2.15,1.77-4.07,4.51-6.5,5.09a46.37,46.37,0,0,1-15.35,1.44c-3.46-.37-7.1-2.77-9.76-5.23-1.2-1.11-1.13-5.27,0-6.85,1.79-2.49,4.88-1.71,7.16.35a37.32,37.32,0,0,1,3.26,3.59c4.4,5.17,12.17,5.49,16.18,1.27-3.64-1.89-8.11-3.2-11.2-6-9.87-9-8.07-27.36,3.41-35.54s31-6.36,35.78,11.7c2.19,8.23.48,16-3.28,23.31-2,3.89-4.49,7.51-6.38,10.63l13.1,4.72,12.72-4.47c-2.77-5.71-6.56-11.49-8.49-17.84-5.24-17.27,4-33.95,22.64-32.44,9.09.73,16.19,4.83,19.82,13.4s3.67,17.3-2.48,25.22c-3.39,4.37-8.18,5.83-13.56,6.64,6.73,5.31,13.57,4.45,18.31-1.9.93-1.24,2.13-2.79,3.46-3.11a8.72,8.72,0,0,1,5.78.48c2.33,1.3,2,4.09.75,5.95a13.89,13.89,0,0,1-5.07,4.63c-9.29,4.64-21,2-27.74-6a6.94,6.94,0,0,0-2.5-1.57c-9.69-4.31-10.75-16.54-6.48-23.5,4.55-7.43,14.87-8.28,19.7-1.68a8.81,8.81,0,0,1-1.06,11.11c-3,3-6.94,3.59-9.67,1.21a6.89,6.89,0,0,1-2-4c-.08-.59,1.61-2,2.46-2,1.36,0,2.7,1,4.51,1.75,1.59-1.26,3-4.69,1.54-6a8.88,8.88,0,0,0-5.87-1.89c-3.69.22-6.7,3.63-7.35,7.33-.91,5.21,1.27,10,5.59,12.26,5.44,2.88,12.09.4,15.84-6.1,3.54-6.12,4.17-12.64,0-18.49-4.39-6.14-11-8.24-18.44-7-6.88,1.11-11,5.53-12.7,12-2.38,9.06-.65,17.64,5.46,24.77,10.58,12.34,24.55,14.39,39.63,11.74,11-1.93,20.68-7.13,30.28-12.45,7.75-4.29,15.43-8.36,24.18-10.65,14.7-3.85,28.84-9.29,41.09-18.77,14.41-11.15,17.95-30.91,8-45.45-5.1-7.42-14.19-11.15-21.53-8.83-8.18,2.58-14.1,12.56-12.22,20.59A17.07,17.07,0,0,0,444.25,495c4.19-.82,7.52-3,8.46-7.72a11.62,11.62,0,0,0-4.52-11.78c-3.5-2.37-7.26-2.18-10.93-.3-2.38,1.21-3.6,3.34-2.53,5.82A5.2,5.2,0,0,0,440,484.4c.91-2.39,1.26-4.1,2.21-5.38.32-.43,2.87-.1,3.12.46.72,1.62,1.44,3.71,1,5.29-1,3.43-3.89,4.4-7.3,4.38-3.83,0-6.7-1.39-8.26-5-1.81-4.22-.34-7.9,2.42-10.94a12.21,12.21,0,0,1,11.42-4.11c10,1.72,16.25,14.09,12.94,21.88a8.81,8.81,0,0,0-.54,4c.56,7.31-2.83,13-7.71,17.78-3.26,3.22-7.08,5.91-12.09,5.7-4-.16-6.81-2.9-6.39-6.13.37-2.85,4-4.86,7.62-4,6.48,1.57,13.71-1.14,15-10.35-4.35,1.16-9.06,3.51-13.74,3.45-14.06-.2-24.63-15.24-20.88-28.93,3.65-13.35,21-26.14,37.3-12.94,5.39,4.37,8.58,10.23,10.54,16.73,1.18,3.9,1.74,8,2.46,11.41,4.07-1.64,7.9-3.17,11.72-4.76a3.15,3.15,0,0,0,1.66-1.27c1.82-4.23,3.51-8.51,5.21-12.67-9.43-1-16.74-3.76-23.86-9-8.46-6.23-12.22-17.75-8.64-26.27,3.7-8.83,15.51-17.64,26.35-15.2,11.28,2.54,21.06,13.15,20.24,24-.29,3.88-2.72,7.61-4.07,11.14a12.15,12.15,0,0,0,10.52-14.54c-.2-1.09-.55-2.43-.13-3.31.78-1.62,1.83-3.74,3.25-4.23s4.33.23,5,1.37c1.22,2,2.14,5,1.64,7.19-2.21,9.76-14,18.17-23,16.8a6.38,6.38,0,0,0-3.28.3c-7.5,3.16-15.07-.32-19.53-5.9A13.43,13.43,0,0,1,470,437.35c1.68-4.34,5.13-6.46,9.58-7.17a8.53,8.53,0,0,1,9.34,6.19c1.26,4.33-.33,8.73-4.12,9.9-1.58.49-3.71-.21-5.36-.9-.53-.22-.84-2.81-.34-3.23,1.18-1,2.91-1.33,5-2.17a4.36,4.36,0,0,0-3.86-5.3c-1.82-.15-4.6,1.89-5.66,3.7-2.78,4.74.29,11.72,5.58,13.91,5.62,2.33,12.48-.34,14.19-5.76,2-6.33,1.16-12.37-3.47-17.31-4.38-4.68-9.91-6.44-16.23-4.66-11,3.11-19.13,15.19-10.42,27a28.14,28.14,0,0,0,23,11.89c12.47.19,22.4-5.57,30.07-15.14,7.84-9.77,12-21.36,15.49-33.21,3-10.17,6.09-20.18,11.65-29.39a153.53,153.53,0,0,0,9.78-20.22c4.1-9.81,6.46-20,4.09-30.73-3.34-15.05-13.34-26-29.28-26.71-12.63-.59-22.41,7.25-19.56,20.4,1.74,8,8.17,14,15.78,14.39,7.2.36,14.53-4.6,16.65-11.26,1.62-5.1-1.49-11-6.77-12.74s-11.62.65-13.41,5.54c-.92,2.51-1.33,5.31,1.25,7.08,2.73,1.87,5.11.51,7.39-1.69-.51-.38-1.09-.59-1.19-.93-.46-1.59-.79-3.22-1.16-4.83,1.7.11,3.7-.32,5,.44,2.6,1.48,2.92,5.56,1.12,8.28-2.8,4.24-8,6-11.93,4s-6.09-8-4.8-12.93c2.82-10.77,16.12-13.25,24.77-6.24,3.94,3.2,7,7.46,10.44,11.29a10.12,10.12,0,0,1,1.15,2.28,25.64,25.64,0,0,1,1.94,16.39,21.61,21.61,0,0,1-5.27,9.77c-1.08,1.21-4.83,1.14-6.61.2-1.1-.58-1.49-4.1-.91-5.87s2.67-3.16,4.28-4.5c5.41-4.5,5.89-12.38,1-16.92a58.23,58.23,0,0,1-2.54,7.52c-4.54,9.26-16.55,13-27.76,8.8A23.33,23.33,0,0,1,502.73,326c-.71-11.95,5-18.77,12.34-22,9.59-4.21,18.92-2.34,27.85,2.21,3.65,1.86,7,4.32,9.88,6.13l4.76-13.12-4.82-13.42c-.73.5-1.92,1.28-3.07,2.11-7.29,5.23-15.17,8.56-24.38,8.47-12.81-.13-23.23-9.33-22.61-23.05.59-13,8.89-21.67,23.31-23.17,11.26-1.17,19.56,5.6,22.11,18,5.52-5.6,4.52-13.16-2.48-18.26-2.41-1.75-4-4-3.1-6.91.43-1.38,2.36-3.47,3.27-3.31,2.36.41,4.56,1.84,6.77,3,.48.25.76,1,1.06,1.5,5.12,9,2.6,22.2-5.4,28.8a8.59,8.59,0,0,0-1.83,2.75A16.32,16.32,0,0,1,519.53,279c-2.8-3.28-3.47-9.61-1.4-13.23a9.39,9.39,0,0,1,10.11-4.64c3.59.62,5.61,3.15,6.57,6.32a5.93,5.93,0,0,1-2.34,7,4.1,4.1,0,0,1-3.34.62,3.53,3.53,0,0,1-1.52-2.95c.16-1.27,1.23-2.43,2.05-3.89a4.51,4.51,0,0,0-6.53-1.27c-1.36,1.06-1.86,4.17-1.56,6.19.57,3.85,4.31,6.54,8.22,6.78,5.54.34,10-2.08,11.84-6.45,2.17-5.1-.76-11.79-6.92-15.19s-12.46-3.94-18.18.12c-6.31,4.48-8.41,11.2-7.07,18.79,1.18,6.65,5.53,10.76,11.82,12.39,9,2.34,17.58.73,24.77-5.42,12.39-10.58,14.48-24.48,11.81-39.58-1.85-10.45-6.79-19.72-11.66-29-3.92-7.48-8.49-14.52-10.68-23C531.5,177,526.05,162,516.1,149c-11-14.38-30.7-18-45.34-8.11-7.64,5.17-11.33,13.88-9.09,21.45,2.39,8.1,12.42,14.18,20.49,12.42a17.23,17.23,0,0,0,13.08-20c-1-6-6.25-10-11.61-8.91-7.15,1.43-11,7-9.4,13.52.79,3.16,3.45,5.53,6,5,3.4-.7,4-3.39,4.28-5.66a29.56,29.56,0,0,1-5.42-2.18c-.35-.22,0-2.39.68-3.18,1.7-2.08,3.86-1.68,6-.51,3.27,1.77,3.59,4.73,3.49,8a7.72,7.72,0,0,1-4.83,7.25c-4.14,1.89-7.85.5-11-2.26-3.43-3-5.14-7.12-4.16-11.68a17.22,17.22,0,0,1,21.93-12.68,11.39,11.39,0,0,0,4,.43c7-.52,12.55,2.65,17.2,7.29,3.4,3.39,6.42,7.31,6.12,12.66-.21,3.76-2.81,6.51-5.92,6.24-2.94-.25-5-3.79-4.31-7.4,1.62-8.52-2.61-14.28-10.3-15.32,1.15,4.28,3.55,9,3.46,13.61-.29,14.5-14.93,24.87-29.08,21-13.22-3.58-26.07-21.24-12.58-37.44,4.34-5.22,10.07-8.41,16.45-10.33,3.94-1.18,8.06-1.75,11.52-2.48-1.61-4.06-3.17-8-4.77-11.93a2.67,2.67,0,0,0-1.08-1.43c-4.29-1.82-8.61-3.55-12.89-5.29a47,47,0,0,1-9.26,24.43C454,143.14,443.44,146.77,435,144c-8.66-2.83-17.15-13.37-16.86-22.15.32-9.82,5.21-17.35,13.77-22.3,7.79-4.51,15.11-3.61,21.89,2.59-.5-7.62-7.31-13.07-14.18-11.71-1.09.22-2.22.21-3.33.32-2.68.26-4-1.26-4.88-3.55a4.06,4.06,0,0,1,2.39-5.52,11.46,11.46,0,0,1,6.72-.86c9.51,2.41,18,14,16.53,23.2a8.14,8.14,0,0,0,.56,3.59c2.68,8.21-1.81,18-9.83,21.16a12.78,12.78,0,0,1-13.86-2.34,10.34,10.34,0,0,1-3.15-11.14c1-3.56,4.07-5.57,8.2-5.72,3.79-.14,6.75,1.21,7.76,5,.38,1.4-.33,3.36-1.14,4.7-.39.64-2.42.89-3.27.46s-1.34-1.9-1.73-3c-.17-.47.32-1.17.54-1.87-3.69,0-6.72,1.47-6.37,3.54a9.09,9.09,0,0,0,3.64,5.78c4.67,2.75,11.47,0,13.8-5,2.59-5.58.29-12.21-5-14.48-5.69-2.43-14.12-1-18.29,3.52-4.7,5.12-6.31,11.16-3.56,17.83s7.26,11.4,14.72,12c8.23.7,14-4,18.17-10.28,9.12-13.75,6.61-28.54-4.66-41.41-8.86-10.12-21.19-14.54-33.47-18.83-10.3-3.6-21.26-5.3-30.79-11.18A170.89,170.89,0,0,0,373,47.8C360.95,42,348.51,37.61,334.8,40.55,319.93,43.73,308.84,54,308.2,70c-.45,11.26,6.16,22.15,20.29,19.37C336.16,87.87,342.37,81.53,343,74A17,17,0,0,0,331.87,57c-4.95-1.71-10.57,1.08-12.62,6.26-2.16,5.47.18,12,5.2,13.81,2.55.91,5.43,1.51,7.29-1.48,1.73-2.79.19-4.87-1.78-7.09-.47.64-.72,1.39-1.15,1.51-1.51.41-3.08.59-4.63.86,0-1.48-.63-3.53.11-4.33a8.36,8.36,0,0,1,5.15-2.8c3.73-.13,6,2.56,7.48,5.75a7.53,7.53,0,0,1-1.16,8.66c-5.53,6.48-17.06,4.17-20.53-4.1a17.41,17.41,0,0,1,8.12-22.17,15.23,15.23,0,0,0,2.47-2c2.13-1.79,4-4.58,6.43-5.16a47.79,47.79,0,0,1,15.35-1.5c3.35.31,6.8,2.64,9.6,4.84,2.22,1.75,2.51,4.84.5,7.31-1.63,2-5.31,1.67-7.65-.55a39,39,0,0,1-3-3.35c-4.42-5.27-12.12-5.63-16.26-1.32,3.56,1.8,7.89,3.05,11,5.74,7,6.12,7.6,14.37,5.61,22.91-2.7,11.58-15.13,19.48-27.48,17.18-13-2.42-18.1-12.53-18-23.67.07-8,3.1-15.43,7.83-22,1.11-1.55,2.21-3.11,3-4.16l-13.28-4.84-13.38,4.84c0-.41-.09-.1,0,.06.67,1,1.37,2.05,2.1,3.05,5.28,7.3,8.67,15.22,8.41,24.45-.33,11.65-6.25,19.88-17.17,22-9.49,1.85-20.46-1-26.22-11.84-5.38-10.1-3.16-23.47,5.42-29.47,2.83-2,6.52-2.75,9.77-4.05-7.18-4.91-13.14-4-18.19,2.8-.72,1-1.66,2.3-2.63,2.42-2.14.28-4.77.59-6.45-.39-2.43-1.42-1.77-4.36-.34-6.27a14.35,14.35,0,0,1,5.32-4.38c5-2.26,10.4-2.16,15.71-1.17,4.73.89,9.14,2.37,11.46,7.25.36.75,1.53,1.18,2.4,1.62a16.48,16.48,0,0,1,6.69,23.45c-4.48,7.5-14.74,8.47-19.71,1.88a8.79,8.79,0,0,1,.66-10.85c2.93-3,6.93-4,9.67-1.81a8.39,8.39,0,0,1,2.34,4.24c.14.5-1.35,2.09-2,2.05-1.53-.09-3-.89-5.47-1.71-1.82,1-2.21,3.91-.92,6.08.78,1.32,3.86,2,5.75,1.78,5.48-.71,8.68-6.57,7.32-12.58-1.28-5.67-7.47-9.5-12.7-7.86-7,2.18-11.36,8.72-11.33,16.84,0,7.34,4.4,12.75,12.27,15.18,7.41,2.29,14.94,0,18.86-5.84,5.62-8.3,4.62-21.59-2.57-30.08-10.73-12.66-24.78-14.74-40.14-12-10.83,2-20.36,7.2-29.93,12.28-7,3.72-13.71,7.89-21.67,10-15.53,4.08-30.62,9.45-43.63,19.46-14.37,11.05-18,30.73-8.07,45.37,5.16,7.6,14.52,11.44,21.81,8.95,8.15-2.78,13.94-12.84,12-20.77-2.21-8.85-10.54-14.25-20-12.64-3.93.67-7.21,2.62-8.43,6.85-1.4,4.82.09,8.83,3.65,12.1,3.21,2.94,7,2.7,10.78,1.31,2.58-.95,4.29-3,3.51-5.73a5.2,5.2,0,0,0-5.46-3.85c-.87,2.23-1.32,4-2.28,5.43-.24.36-2.39,0-3.18-.69-1.9-1.54-1.75-3.62-.71-5.71,1.58-3.17,5.06-4.52,9.65-3.68a8.38,8.38,0,0,1,6.54,7.15c.74,8.94-8.68,14.11-14.71,12.72a17.34,17.34,0,0,1-12.63-22,10.28,10.28,0,0,0,.41-3.65c-.61-7.45,2.84-13.23,7.86-18.09,3.37-3.26,7.31-6,12.48-5.57,3.52.29,6.1,2.92,5.85,5.94-.23,2.82-3.6,4.87-7.1,4.33-9.09-1.41-13.87,1.94-15.89,11.4a13.76,13.76,0,0,1,2.86-1.7c3.86-1.11,7.83-3.14,11.65-2.91,17.09,1,26.89,21.35,17.63,35.4-5.68,8.62-15.28,13.49-24.67,11.33-7-1.61-12.7-5.67-15.81-12-3.3-6.75-5.46-14.06-7.92-20.63-3.14,1.26-7.21,2.88-11.26,4.53a2.15,2.15,0,0,0-1.15.88c-1.81,4.33-3.55,8.69-5.28,13,8.41,1,16.53,3.46,23.69,8.89,8.67,6.56,12.45,17.73,8.77,26.5-3.39,8.09-15,17.42-26.46,15C100.22,176.6,92.33,159,102,145c-7.11.34-12.8,7.38-11.42,14.09a33.06,33.06,0,0,1,.35,3.32c.27,2.66-1.18,4.11-3.5,4.92A4.14,4.14,0,0,1,81.85,165c-.83-2.06-1.44-4.7-.89-6.74,2.7-10,14.65-18,23.28-16.49a7.86,7.86,0,0,0,3.59-.57c8.23-2.69,18,1.82,21.15,9.88,2,5.05,1.21,9.89-2.38,13.86A10.34,10.34,0,0,1,115.43,168c-3.75-1.12-5.77-4.38-5.66-9,.09-3.64,2.13-6.91,5.25-7.08,1.68-.09,3.45,1.54,5.18,2.39a23.94,23.94,0,0,1-2.62,3.84c-.33.34-1.63-.28-2.54-.48,0,3.65,1.39,6.66,3.49,6.32a9,9,0,0,0,5.77-3.64c2.84-4.85-.07-11.73-5.34-13.94-5.68-2.39-12.39.06-14.28,5.52a17.1,17.1,0,0,0,3.69,18c4.35,4.81,12.12,6.18,18.2,3.42,6.59-3,11.4-7.59,11.68-15.35.29-7.92-4.3-13.37-10.31-17.44-13.72-9.28-29.09-6.23-41.45,4.68-9.48,8.37-13.86,19.85-18.08,31.37-4,10.94-5.58,22.73-11.9,32.88a143.29,143.29,0,0,0-8.13,15.25c-5.78,12.41-10.72,25.1-7.66,39.22,3.21,14.82,13.46,25.7,29,26.65,13.67.84,22.26-8,19.79-20.58C88,262.28,81.38,256.24,74,255.77a16.88,16.88,0,0,0-16.88,11.38c-1.58,5,1.37,10.58,6.56,12.5,5.35,2,11.66-.37,13.54-5.22,1-2.59,1.48-5.45-1.26-7.32s-5.1-.43-7.21,1.75c.51.39,1.11.61,1.23,1,.49,1.5.83,3,1.22,4.57-1.57,0-3.39.63-4.65,0-3-1.38-3.62-5.4-1.78-8.36,2.73-4.39,7.61-6.16,11.78-4.27s6.39,7.92,5,13C78.73,285.58,65.48,288,56.75,281c-3.93-3.16-7-7.4-10.36-11.23a6.69,6.69,0,0,1-1.64-3.26c-.68-5.12-1.62-10.28-1.52-15.4.08-3.79,1.6-7.79,5.18-9.82a8.27,8.27,0,0,1,6.51-.46c1.09.47,1.9,3.91,1.31,5.43-.83,2.12-2.91,3.89-4.75,5.45C46.36,256,46,264,50.24,267.93c1.81-3.57,3.08-7.88,5.76-11,6.12-7.06,14.5-7.76,22.91-5.51,13.28,3.55,19,14.66,17,27.48-2,13-12.39,18-23.63,17.93-8-.07-15.42-3.13-22-7.88-1.53-1.1-3.08-2.16-4.08-2.86l-4.9,13.16Zm254-278.34c1.49-3.42,3-6.33,4-9.41,2-6.19,2.07-12.44-1.07-18.3-.79-1.48-2.54-3.13-4-3.32-1.08-.14-2.79,1.8-3.62,3.17-3.06,5.05-2.93,10.67-1.81,16.16C294.58,27,295.42,31.31,300.23,34.54ZM563.86,299.89c3.6,1.62,6.39,3.09,9.32,4.13,5.78,2.05,11.72,2.22,17.36-.28,1.85-.82,3.95-3,4.22-4.76.19-1.22-2.37-3.47-4.14-4.23a21.13,21.13,0,0,0-8.23-1.69C576,293.1,569.66,294,563.86,299.89ZM487.19,113c3.54-1.42,7-2.43,10-4.12,5.66-3.12,10.17-7.47,12.09-13.9,1.23-4.12-.09-6-3.69-5.54C495.48,90.84,486,104.58,487.19,113ZM35.41,300.15c-6.23-6.51-20.83-8.67-28-4.62-1.44.82-3.35,2.67-3.23,3.89.14,1.55,1.82,3.51,3.35,4.27A20.16,20.16,0,0,0,23,304.95C27.07,303.64,31,301.86,35.41,300.15Zm76.4,186.07c-7.34,1.1-13.43,4.29-17.75,10-2.19,2.87-3.48,6.58-4.56,10.09-.7,2.27,1.14,3.33,3.41,3.07C102.26,508.28,112.6,495.72,111.81,486.22ZM299.76,564.7a10.44,10.44,0,0,0-1.5.86,3.88,3.88,0,0,0-.95,1.15c-4.26,8.32-5.37,16.87-1.52,25.64,1.79,4.07,4.59,4.22,7.13.46,3.6-5.34,3.3-11.29,2.15-17.18C304.29,571.63,303,567.67,299.76,564.7ZM113.37,111.5c-2.18-4.54-3.79-9-6.35-12.89a21.47,21.47,0,0,0-12.18-9.2c-3.28-.9-5.62.72-5.4,3.58C90.12,101.64,103.39,112.43,113.37,111.5ZM485.49,487c2.09,4.42,3.54,8.64,5.92,12.24,3.38,5.1,7.77,9.29,14.35,10.09,2.72.33,4-.84,3.66-3.63C508.24,496.56,496,486.45,485.49,487ZM123.67,501c.16-4.41-3.09-6.9-6.79-5a8.35,8.35,0,0,0-4.93,8.05c.09,3.71,2.32,5.83,5.67,6.9,5.79,1.86,12.84-2.95,13.15-9.05s-2.91-10.26-7.77-13.41c-5.37-3.48-6.44-3.09-7.86,2.87,0,.19.1.43.21.82a55,55,0,0,1,5.53,0,7.84,7.84,0,0,1,6.8,7.12c.14,3.79-2.59,8-6,8.29-1.41.14-3-1.33-4.48-2.06.75-1.51,1.17-3.41,2.36-4.39C120.38,500.4,122.26,501,123.67,501Zm158,64.86c.61,1.59.72,3.1,1.52,3.77,2.39,2,1.51,3.32-.54,4.45-2.25,1.24-3.7,0-4.79-2-2.74-4.84.87-11.29,6.57-11.69,4.21-.29,6.9,1.95,8.68,5.54,4.71-4.35,4.43-6.19-1.35-7.85a20.76,20.76,0,0,0-7.3-.77c-9.31.77-13.9,9.42-9.19,17,2.39,3.85,6.43,5.39,10.08,3.83s5.49-6.4,4.2-10.48C288.16,563.35,284.8,562.64,281.64,565.81Zm-175-451.07a55.54,55.54,0,0,1,0,6.1,7.93,7.93,0,0,1-6.91,6.62c-3.69.19-7.75-2.54-8.48-5.91-.46-2.11-.17-4.09,2.52-4.48s4.08.9,4.37,3.4a12.65,12.65,0,0,1-.45,3.18c4.16,0,6.29-2.18,5.63-5.49a7.39,7.39,0,0,0-5.83-6,10.82,10.82,0,0,0-7.16,1.53c-3.22,2-3.74,5.71-2.31,9.66,1.36,3.74,5.73,7.12,9.49,7.33,7.46.41,14.12-5.94,15-14.66Zm385.61,369c0-1.89-.14-3.76,0-5.6a7.92,7.92,0,0,1,6.95-7c3.7-.2,8,2.48,8.44,5.88.19,1.42-.83,3.87-2,4.36s-3.43-.67-4.35-1.81c-.78-1-.3-2.94-.37-4.47-3.49,0-6,2.32-5.57,5.17.45,3,4.23,6.33,7.62,6.64a7.53,7.53,0,0,0,8-5.32c1.84-5.79-3.13-13.08-9.24-13.52s-10,3-13.08,7.67C484.83,481.44,485.25,482.42,492.25,483.71ZM123.84,97.24a15.72,15.72,0,0,1-2.38.44c-2.46.05-4.13-1-4.11-3.64,0-2.93,2.27-3.89,4.3-3s4.62,2.83,5.26,4.84c.69,2.19,0,5.32-1.12,7.46-2.05,3.81-6.22,3.27-10.42,3.14l1.1,5.77c5.63-.5,9.59-2.89,12.43-7.16,4.64-7,1.13-16.09-6.88-17.86a8.65,8.65,0,0,0-9.84,5.4c-1.14,3.44,1.2,8.08,4.91,9.72C121.17,104.17,124,102.15,123.84,97.24Zm351.26.61c.28,4.68,3.57,6.64,7.49,4.51,3-1.61,5.07-5.51,4.4-8.71a7.48,7.48,0,0,0-6.57-6.16,9.82,9.82,0,0,0-9,3.2c-5.67,5.84-3.51,15,4.51,19.62,5.47,3.13,6.46,2.76,8-3,0-.18-.13-.42-.25-.78-1.7,0-3.44.11-5.17,0-3.65-.28-6.91-3.41-7.21-6.75-.33-3.66,2.24-8,5.68-8.57,1.43-.25,3.8.58,4.5,1.7.58.93-.18,3.61-1.21,4.4S477,97.72,475.1,97.85Zm91.15,195.34c-1.23-1.14-2.37-2.09-3.38-3.17a8,8,0,0,1-1-10.18c1.88-2.9,6.11-4.48,9.45-2.81,1.48.74,3.28,3.28,3,4.59-.48,2.24-2.77,3.47-5.29,2A34.38,34.38,0,0,1,565.7,281c-1.64,1.82-2.79,4.19-.19,6.66,4.08,3.87,11.69,1.48,13-4,1.21-5-3.22-10.24-9-10.66-5.32-.39-8.87,1.84-11,6.91-2.45,5.87-1.13,12.64,3.21,16.24ZM97.3,474.87c.19.91.61,1.7.42,2.29-.46,1.43-.9,3.15-2,4-.69.55-3.13.17-3.57-.54a6.36,6.36,0,0,1-.85-4.72c1.61-4.78,9-6.63,12.19-2.75,2.19,2.66,2.9,6.53,4.4,10.15,4.93-.61,5.78-1.85,2.68-7.08a19.5,19.5,0,0,0-6.86-6.9c-6.82-3.8-14.39-.19-16.25,7.22a8.34,8.34,0,0,0,5,9.93c3.5,1.3,8-.77,9.84-4.51C104.42,477.78,102.39,474.75,97.3,474.87ZM32.72,293.3a21.17,21.17,0,0,0,3.54,2.62,2.65,2.65,0,0,0,2.47-.38,15.84,15.84,0,0,0,2.11-14.42c-1.35-4.43-4.42-6.91-8.84-7.85-4.8-1-10.88,2.68-11.6,7-.85,5.12,2,8.86,7.34,9.58,2.54.34,4.87-.06,6.35-2.62s.5-4.6-1.29-6.81c-.59.89-.9,1.9-1.54,2.21A10.15,10.15,0,0,1,26.58,284c-.81-.06-2.26-2.09-2.07-2.91a6.08,6.08,0,0,1,2.75-3.49c3.83-2.13,8.65-.15,10.4,4C39.52,286,38.24,289.17,32.72,293.3Zm459.72-177.8c-6.45-.21-6.64,1.51-4.22,6.64a19.87,19.87,0,0,0,5.26,6.17c3.32,2.83,9.23,3.18,12.63,1.17,3.76-2.22,5.66-6.43,5-11.14-.58-4.25-2.95-6.59-6.66-6.57-4,0-8.08,3.34-8.53,6.93-.47,3.82.93,5.14,5.52,4.9-.13-.71-.52-1.48-.32-2.05.49-1.41.94-3.12,2-4,.72-.58,3.13-.35,3.57.31a6.39,6.39,0,0,1,1,4.68c-1.41,4.79-8.36,6.44-12.32,3.27C492,123.16,491.82,119.61,492.43,115.49ZM305.35,565.83c1.44-1.3,2.61-2.42,3.83-3.47a8.1,8.1,0,0,1,10-.53c2.68,2,4.2,6.68,2.49,9.62-.8,1.37-3,1.93-4.56,2.86-.69-1.63-1.92-3.28-1.89-4.9,0-1.1,1.8-2.16,2.82-3.27-2.81-3.31-6.18-2.93-8.15,1.07a8.2,8.2,0,0,0,3.77,10.69c4.1,1.88,9.31-.38,11.33-4.91,2.15-4.81.51-10.93-3.6-13.5-6.15-3.84-14.61-3-18.71,2ZM32.36,318.6c2.51-2.43,3.51-4.74,1.63-7.06s-4.73-2.9-7.77-2-5.41,2.34-5.82,5.83c-.53,4.5,1.55,7.65,6.41,9.61a10.21,10.21,0,0,0,11.93-3.3c3.86-5.06,4.16-14.45-1.19-19.41L33,305.3c1.4,1.51,2.67,2.72,3.76,4.08a8.08,8.08,0,0,1-.1,10c-2.23,2.67-6.9,3.85-9.75,2.05a5.6,5.6,0,0,1-2.47-3.76c-.05-1,1.62-2.69,2.73-2.89,1.3-.24,2.89.7,4.23,1.38C31.89,316.38,31.94,317.39,32.36,318.6Zm533.45-13.18c-4.61-4.29-5.83-4.12-7.57,1.72a21.48,21.48,0,0,0-.71,8.41c.9,7.63,9.63,12.07,16.31,8.56,3.83-2,5.82-6.64,4.49-10.42-1.19-3.36-6-5.82-10-4.49a7.34,7.34,0,0,0-4,3.82c-.47,1.19.76,3.05,1.54,5.6,1-1.66,1.22-2.4,1.64-2.57,1.63-.65,3.34-1.5,5-1.46.73,0,2.19,2.23,1.94,3a6.73,6.73,0,0,1-3,3.72c-3.61,1.84-8.54-.3-10.24-4.09C559.36,313,560.51,310,565.81,305.41Zm-82.52,187c-.09-6.34-1.62-7.49-6.65-4.27a22,22,0,0,0-7.55,7.86c-3.33,6.42.72,13.81,7.78,15.48a8.19,8.19,0,0,0,9.47-5.19c1.31-4-.59-8.65-4.53-10a6.68,6.68,0,0,0-5.08.44c-1.2.76-1.57,2.83-2.61,5,1.72-.37,2.38-.74,2.85-.57,1.5.52,3.26.94,4.26,2,.55.59.18,3.12-.52,3.53a6.55,6.55,0,0,1-4.73.78c-3.49-1.1-5.47-5.94-4.34-9.56C473.1,493.21,476.62,491.5,483.29,492.39ZM318.34,32.64c-.82-.52-1.86-.81-2.15-1.45a13.26,13.26,0,0,1-1.46-5c0-.67,2-2.12,2.69-1.91a6.7,6.7,0,0,1,3.8,2.76c2.57,4.95-1.14,10.89-6.71,11.23-4.22.26-6.82-2.11-8.79-5.48C302.19,36.53,302,38,305,39.6c5.07,2.71,13.7,3.25,18.18-2.79A10.64,10.64,0,0,0,324.32,25c-1.82-3.65-4.8-5.11-8.77-4.74-3.64.34-5.36,2.84-6.31,5.93-.84,2.74-.59,5.48,1.85,7.41S315.94,34.44,318.34,32.64Zm-37.07.25c2.51,2.79,5.83,2.45,7.76-1.32s.18-9-3.6-10.75c-4.24-1.93-9.57.44-11.51,5.12a11.13,11.13,0,0,0,4.89,13.8c5.64,3.3,13.82,2,17.49-2.73l-2.82-4.24c-1.38,1.33-2.57,2.58-3.87,3.71a8.14,8.14,0,0,1-10,.21c-2.88-2.21-4.22-7.12-2.17-10,.9-1.25,3.39-2.39,4.73-2,1.9.51,3,2.63,1.58,4.84C283,30.72,282.13,31.77,281.27,32.89Z"/><path class="cls-1" d="M399.28,36.49c5.15,2.45,10.37,4.77,15.39,7.47,1.2.65,2.08,2.52,2.39,4a5.56,5.56,0,0,1-.8,4.27c-.59.67-2.73.51-3.91,0q-8.85-3.46-17.53-7.36c-1.42-.64-2.5-2-3.73-3.1a27.83,27.83,0,0,1,4.07-4c.91-.6,2.42-.3,3.66-.4Z"/><path class="cls-1" d="M37.42,200.36a32.26,32.26,0,0,1,7.52-17,6.88,6.88,0,0,1,3.76-2.19,5.74,5.74,0,0,1,4,1.08c.54.41.38,2.26,0,3.25-2.46,6.35-5,12.67-7.69,18.91-.56,1.3-2.18,3.29-2.91,3.13a7,7,0,0,1-3.69-3.06C37.66,203.33,37.7,201.68,37.42,200.36Z"/><path class="cls-1" d="M199.51,561.27c-6.07-1.33-12.87-3.16-17.26-9.24-.92-1.28-.1-3.81-.08-5.76,1.56,0,3.29-.36,4.66.18q8.34,3.26,16.47,7c1.71.79,3.08,2.31,4.6,3.5-1.87,1.37-3.71,2.78-5.65,4.06C201.81,561.35,201,561.17,199.51,561.27Z"/><path class="cls-1" d="M561.43,398.78A32.55,32.55,0,0,1,554,415.21a5.7,5.7,0,0,1-3.08,1.91,7.27,7.27,0,0,1-4.39-.57c-.56-.31-.59-2.44-.18-3.49,2.39-6.23,4.88-12.43,7.55-18.54.61-1.4,2.1-2.42,3.18-3.61,1.27,1.25,2.82,2.34,3.73,3.82C561.46,395.78,561.25,397.36,561.43,398.78Z"/><path class="cls-1" d="M397.75,561.4a19.7,19.7,0,0,1-4.61-1.78c-2.39-1.62-2-4.27.63-5.37,6.16-2.57,12.32-5.16,18.58-7.45,1.34-.49,3.79-.32,4.53.56s.6,3.42-.16,4.56C412.39,558.41,405.47,560.1,397.75,561.4Z"/><path class="cls-1" d="M37.54,398.48c.09-1.11-.18-2.47.36-3.29A33.56,33.56,0,0,1,41.74,391c1.12,1.17,2.65,2.15,3.29,3.55,2.45,5.39,4.76,10.86,6.81,16.41.62,1.68.23,3.73.3,5.61-2.11-.15-4.38.14-6.26-.58a7.49,7.49,0,0,1-3.4-3.71c-2.07-4.4-3.82-8.95-5.7-13.44Z"/><path class="cls-1" d="M183.69,52.87c-.55-.83-2.11-2.16-1.88-3,.59-2.28,1.41-5.08,3.12-6.38,4.85-3.7,10.44-6.15,16.76-5.9A8,8,0,0,1,206,39.17c2.69,2.13,2.45,3.71-.72,5.11-6.24,2.77-12.55,5.38-18.84,8A19.31,19.31,0,0,1,183.69,52.87Z"/><path class="cls-1" d="M561.67,201c-.56,1.43-.91,3.32-1.93,4.74-1.66,2.34-4.24,1.9-5.37-.76-2.56-6-5.13-12-7.47-18.15-.51-1.33-.53-4.13,0-4.31a7.68,7.68,0,0,1,5.17-.19c5.3,2.15,6.17,7.63,8.21,12.13C561.08,196.26,561.15,198.46,561.67,201Z"/><path class="cls-1" d="M499,299.36c0,25.87-.05,51.75.06,77.62a10.58,10.58,0,0,1-3.39,8.41c-19.88,19.67-39.54,39.55-59.31,59.33Q410.17,470.95,383.83,497a6.46,6.46,0,0,1-4.1,1.72q-80.25.13-160.49,0a7,7,0,0,1-4.44-1.91q-56.58-56.38-113-112.95a7,7,0,0,1-1.83-4.49q-.14-80.06,0-160.12a7.5,7.5,0,0,1,2-4.76q56.24-56.45,112.68-112.69a7.5,7.5,0,0,1,4.78-2q79.87-.16,159.74,0a8,8,0,0,1,5.09,2.15q56.32,56.1,112.41,112.43a8.5,8.5,0,0,1,2.17,5.44C499.05,246.36,499,272.86,499,299.36Zm-3.73,0c0-26.12,0-52.25-.09-78.37a8,8,0,0,0-2.08-5.09q-55-55.27-110.28-110.31a7.46,7.46,0,0,0-4.76-2q-78.56-.15-157.11,0a8,8,0,0,0-5,2.21q-55.12,54.9-110,110a8,8,0,0,0-2.14,5.06q-.17,78.37,0,156.74a8,8,0,0,0,2.08,5.09Q160.87,438,216.13,493a7.46,7.46,0,0,0,4.76,2q78.56.15,157.11,0a7.47,7.47,0,0,0,4.78-1.94Q438,438,493.05,382.78a8,8,0,0,0,2.14-5.06C495.32,351.6,495.28,325.48,495.28,299.35Z"/><path class="cls-1" d="M70.88,366c6.05,3.53,12.41,6.63,18.07,10.71,7,5,8.55,12.24,6.31,20.47-1.93,7.1-3.65,14.25-5.37,21.4a46.66,46.66,0,0,0-.67,5.42l-1.1-.07c.48-7.62.2-15.38,1.6-22.83,2.24-11.93-3.27-19.74-11.81-26.54-2.91-2.32-5.75-4.73-8.61-7.1Z"/><path class="cls-1" d="M366.74,68.34c3.24,3.92,6.57,7.77,9.7,11.77,6.43,8.23,14.69,11.08,25,9.61,7.32-1,14.78-1.15,22.17-1.68l.1,1c-10.64,2.33-21.22,5-32,6.86C385.43,97,380,93.82,376.53,88.55c-4-6-7.43-12.4-11.11-18.62Z"/><path class="cls-1" d="M89,175.35c2.22,9.18,4.5,18.35,6.64,27.55,1.82,7.86-.2,14.64-6.89,19.31-5.65,3.95-11.7,7.33-17.64,10.85a10,10,0,0,1-3.1.65l-.45-.95c4-3.34,7.86-6.87,12-10,9.07-6.73,12-15.46,10.13-26.49-1.15-6.93-1-14.08-1.5-21.13Z"/><path class="cls-1" d="M366.17,527.95c3.68-6.23,6.89-12.8,11.16-18.59,5.05-6.87,12.41-7.83,20.38-5.7q10.31,2.76,20.7,5.24a48.14,48.14,0,0,0,5.92.69c-6,2.34-11.94.42-17.89.1-4.58-.25-9.18-1-13.74-.86-8,.33-12.68,6.15-17.47,11.54-2.63,3-5,6.12-7.51,9.19Z"/><path class="cls-1" d="M528.12,232.62c-6.23-3.68-12.8-6.89-18.6-11.16-6.86-5-7.78-12.42-5.7-20.35,1.81-6.89,3.58-13.8,5.24-20.73a48.38,48.38,0,0,0,.69-5.94c2.3,6.15.71,12.25,0,18.31-1.21,9.9-2.33,19.66,6.72,27,4.14,3.35,8.16,6.86,12.22,10.3.37.32.7.69,1.05,1Z"/><path class="cls-1" d="M232.79,70.67c-3.6,6.14-6.75,12.6-10.91,18.34-5.21,7.2-12.81,8.09-21,5.93-6.76-1.79-13.53-3.56-20.33-5.21a47.2,47.2,0,0,0-5.88-.69c6-2.31,11.93-.56,17.88,0,7.73.67,15.8,2.92,22.6-2.48,4.33-3.44,7.83-7.93,11.63-12,1.59-1.71,3-3.61,4.46-5.43Z"/><path class="cls-1" d="M529.81,367c-3.8,3.18-7.53,6.42-11.4,9.51-8,6.41-10.77,14.6-9.36,24.72a132.89,132.89,0,0,1,1,22.28c-2.42-10-5.21-19.89-7.12-30a16.17,16.17,0,0,1,7.29-17.12c6-4,12.4-7.47,18.63-11.17Z"/><path class="cls-1" d="M231.76,529.68c-3.16-3.81-6.38-7.57-9.45-11.44-6.5-8.18-14.84-10.81-25.08-9.33a127.75,127.75,0,0,1-21.86.95c9.85-2.41,19.62-5.21,29.56-7.11,7.21-1.37,13.59,1.33,17.73,7.57,3.93,5.92,7.3,12.22,10.91,18.35Z"/><path class="cls-1" d="M231.21,539.34c-3-1.89-6.18-3.53-8.91-5.74a86.43,86.43,0,0,1-10.39-9.69c-2.77-3.13-6-3.88-9.88-4.07-7.32-.35-14.62-1-21.92-1.6a10.78,10.78,0,0,1-2.47-1c7.17-.66,13.73-1.24,20.28-1.89a77.8,77.8,0,0,0,9.23-1.19,4.63,4.63,0,0,1,5.38,1.88c6.26,7.7,12.76,15.2,19.18,22.77A6.7,6.7,0,0,0,231.21,539.34Z"/><path class="cls-1" d="M176.73,80.87c4.16-.67,8.31-1.56,12.5-2A106.62,106.62,0,0,1,203,78.37c4,.14,6.66-1.44,9.34-4.16,3.92-4,8.23-7.59,12.44-11.28a17.08,17.08,0,0,1,3-1.71l.8.84c-2.07,2.44-4.19,4.84-6.19,7.34-3.4,4.27-6.78,8.57-10.05,12.93a4.06,4.06,0,0,1-4.31,1.9c-10.35-1.17-20.73-2-31.1-3Z"/><path class="cls-1" d="M517.8,175.8c.82,4.88,1.69,8.81,2.08,12.79a93.63,93.63,0,0,1,.56,13.8c-.23,4.41,1.5,7.41,4.61,10.29a137.85,137.85,0,0,1,10.19,10.91,8.88,8.88,0,0,1,1.89,5c-7-5.59-13.92-11.22-21-16.74-2.83-2.22-1.46-5.12-1.26-7.62C515.65,195.1,516.74,186,517.8,175.8Z"/><path class="cls-1" d="M63.2,225c4.27-4.85,8.68-9.58,12.73-14.6a12.93,12.93,0,0,0,2.82-6.45c.63-6.56.53-13.18,1.09-19.75a35.71,35.71,0,0,1,2.4-8.7c-1,10.92,1.35,21.49,2.47,32.17a6.15,6.15,0,0,1-2,4.58c-5.86,4.94-12,9.59-18,14.35Z"/><path class="cls-1" d="M370.56,536.53c5.55-6.93,10.88-14,16.81-20.63,1.28-1.42,4.76-1.35,7.16-1.16,9.15.74,18.28,1.81,28.06,2.83-4.29.78-8.14,1.8-12,2.12-6.58.55-13.87-1-19.6,1.41s-9.81,8.56-14.73,13a41,41,0,0,1-5,3.32Z"/><path class="cls-1" d="M373.8,63c4.75,4.19,9.66,8.22,14.2,12.63a10.09,10.09,0,0,0,7.22,3.08q9.7.3,19.39.9a10.92,10.92,0,0,1,5.44,1.9c-3.84.33-7.69.58-11.52,1-5.78.64-11.56,1.33-17.32,2.14a4.44,4.44,0,0,1-4.7-2c-4.66-6.1-9.52-12.06-14.3-18.08Z"/><path class="cls-1" d="M61.65,370.85A20.81,20.81,0,0,1,65,372.6c5.59,4.32,11,8.89,16.72,13,3.2,2.31,2.7,5.3,2.42,8.29-.87,9.3-1.9,18.59-2.94,28.57-.79-4.45-1.79-8.35-2.12-12.31-.52-6.33,1-13.31-1.28-18.86s-8-9.57-12.2-14.29c-1.55-1.75-3-3.56-4.55-5.35Z"/><path class="cls-1" d="M535.77,373.64c-4,4.58-7.8,9.37-12.1,13.64a11.37,11.37,0,0,0-3.62,8.51c-.12,6.34-.49,12.68-.89,19a10.51,10.51,0,0,1-1.83,5.25c-.12-.7-.28-1.39-.35-2.09-.92-9-1.92-18-2.65-27a5.79,5.79,0,0,1,1.63-4.32c6-5,12.17-9.73,18.29-14.56Z"/><path class="cls-1" d="M371,544.3c7.29-5.91,14.46-12,22-17.6,1.62-1.21,4.46-.85,6.75-1.11q9.43-1.06,18.87-2c1.26-.13,2.54,0,3.81,0l.1,1.11c-3.62.8-7.21,2.13-10.85,2.3-12.74.56-22.93,6.64-32.66,14.07-2.26,1.72-5,2.81-7.53,4.18Z"/><path class="cls-1" d="M541.77,377.4c-2.2,3.27-4.13,6.77-6.64,9.78-5.3,6.32-6.39,14-7.74,21.65-1.1,6.24-2.7,12.4-4.07,18.6l-1.11-.23c.53-4.23,1.08-8.45,1.58-12.68.75-6.42,1.43-12.84,2.2-19.25a6.3,6.3,0,0,1,.9-3.11c4.3-5.29,8.74-10.48,13.13-15.69Z"/><path class="cls-1" d="M221.4,541.6c-3.28-2.18-6.8-4.09-9.8-6.61-6.32-5.34-14-6.39-21.68-7.76-6.23-1.11-12.39-2.69-18.57-4.06l.23-1.12c4.2.53,8.4,1.08,12.61,1.57,6.42.75,12.85,1.37,19.24,2.27a10,10,0,0,1,4.59,2c5.18,4.07,10.22,8.33,15.3,12.52Z"/><path class="cls-1" d="M375.14,55.57c5.19,3.44,10.5,6.71,15.55,10.36,5.51,4,12.05,4,18.26,5.4,3.72.82,7.49,1.46,11.21,2.28a12.61,12.61,0,0,1,2.6,1.24l-.33.94c-2.49-.26-5-.51-7.48-.78-6.65-.73-13.31-1.44-20-2.25a6.16,6.16,0,0,1-3-1.12c-6.15-5-12.21-10.11-18.3-15.19Z"/><path class="cls-1" d="M539.49,221.31c-3.44-4.08-6.6-8.43-10.38-12.16s-3.06-8.41-3.77-12.77c-1-6.22-1.61-12.51-2.34-18.78a9.1,9.1,0,0,1,.22-2l1.22-.26c.76,3,1.65,6,2.24,9.07,1.12,5.81,1.72,11.75,3.21,17.46.75,2.87,2.9,5.41,4.55,8,2.12,3.33,4.39,6.57,6.59,9.86Z"/><path class="cls-1" d="M221.5,59.37c-4.17,3.49-8.58,6.73-12.44,10.53s-8.71,2.86-13.19,3.58c-6,.95-12,1.52-18.05,2.19a12.91,12.91,0,0,1-2.67-.25l-.1-1c4.17-.93,8.3-2.44,12.51-2.69,12.53-.75,22.74-6.46,32.24-14a10,10,0,0,1,1.6-.86Z"/><path class="cls-1" d="M59.53,377.29c3.57,4.29,7.09,8.61,10.73,12.84a11.55,11.55,0,0,1,2.85,7.31c.44,7.06,1.4,14.09,2.11,21.14.12,1.19,0,2.4,0,3.6l-1,.19c-.67-2.58-1.49-5.14-2-7.76-1.11-6-1.34-12.18-3.29-17.83-1.6-4.65-5.14-8.64-7.84-12.91-1.38-2.18-2.8-4.33-4.2-6.49Z"/><path class="cls-1" d="M59.38,218.09c1.67-2.57,3.08-5.36,5.08-7.65,5.14-5.89,5.7-13.24,7.06-20.37.83-4.33,1.69-8.66,2.54-13l1,0a23.76,23.76,0,0,1,.18,3.53c-.73,7.92-1.49,15.84-2.36,23.75a6,6,0,0,1-1.4,2.91c-3.46,4.23-7,8.38-10.52,12.56Z"/><path class="cls-1" d="M505,425c-3.66-6.21-7.64-12.23-10.8-18.67-1.46-3-1.38-6.73-1.76-10.16-.05-.46,1.33-1.53,2-1.5s2,1,2.07,1.59c.73,9.29,5.33,17.31,8.28,25.87A10.74,10.74,0,0,1,505,425Z"/><path class="cls-1" d="M64.93,242.51c3.49-1.68,7-3.26,10.44-5.05,5-2.61,9.86-5.46,14.86-8,1.13-.58,2.63-.45,4-.64-.18,1.48.13,3.32-.65,4.35a9.36,9.36,0,0,1-4.45,3.1c-7.93,2.46-15.93,4.67-23.91,7Z"/><path class="cls-1" d="M240.21,529.35c-1.35-3.15-2.53-6.38-4.09-9.42-1.9-3.7-4.23-7.17-6.13-10.87-.69-1.33-.68-3-1-4.55a37.9,37.9,0,0,1,4.94,1.29,3.85,3.85,0,0,1,1.63,2,70,70,0,0,1,5.66,21.38Z"/><path class="cls-1" d="M96,177.91c4.14,6.37,9,12.3,10.93,19.95a4.4,4.4,0,0,1,.21,2.53,24.91,24.91,0,0,1-2.42,3.64c-.82-1.17-2-2.24-2.41-3.54-2.29-6.59-4.42-13.24-6.58-19.88-.25-.76-.4-1.56-.6-2.34Z"/><path class="cls-1" d="M421.21,96.57c-6.92,3.54-13.79,7.21-20.82,10.5-1.11.52-3.15-.3-4.49-1-1.8-1-1.67-2.81.15-3.38,8.13-2.55,16.36-4.81,24.55-7.18Z"/><path class="cls-1" d="M503.93,179.12c-.79,2.15-1.68,4.26-2.36,6.45-1.59,5.14-3,10.35-4.69,15.46-.41,1.22-1.69,2.15-2.56,3.22-.77-1.37-2.47-3-2.16-4A80.07,80.07,0,0,1,497,187.87a104.67,104.67,0,0,1,5.71-9.3Z"/><path class="cls-1" d="M70.76,358.45a49,49,0,0,1,21.5,5.86,6.23,6.23,0,0,1,2.31,3.21,2.88,2.88,0,0,1-.63,2.64,3.07,3.07,0,0,1-2.77.09C84.49,366.49,77.88,362.59,70.76,358.45Z"/><path class="cls-1" d="M103.8,393.62c4,2.19,3.74,5.66,2.55,8.31-2.48,5.56-5.72,10.79-8.74,16.1-.24.42-1.2.43-2,.7Z"/><path class="cls-1" d="M527.26,241.48c-6.81-2.38-13.65-4.69-20.4-7.22a4.88,4.88,0,0,1-2.32-2.77,3.56,3.56,0,0,1,.53-3c.38-.46,1.95-.39,2.69,0,6.29,3.25,12.53,6.62,18.75,10,.6.33,1,1.07,1.44,1.62Z"/><path class="cls-1" d="M371.11,504.39a36.4,36.4,0,0,1-1.55,4.15q-4.23,8.12-8.62,16.15a16.2,16.2,0,0,1-2.32,2.66,15.42,15.42,0,0,1,.15-3.16c1.2-4.74,2.24-9.55,3.85-14.15C363.8,506.7,365.52,503.29,371.11,504.39Z"/><path class="cls-1" d="M179.11,95.87a55.45,55.45,0,0,1,5.67,1c5.74,1.64,11.47,3.34,17.15,5.19.92.3,1.56,1.45,2.34,2.21-.85.74-1.71,2.12-2.56,2.11-2.4,0-5.07,0-7.14-1-5.33-2.62-10.4-5.79-15.58-8.74Z"/><path class="cls-1" d="M239.86,71.46c-.45,7.3-1.44,14.62-5.87,20.95a5.38,5.38,0,0,1-2.61,2,3.28,3.28,0,0,1-2.67-.58,2.51,2.51,0,0,1-.22-2.38C232.21,84.73,236,78.1,239.86,71.46Z"/><path class="cls-1" d="M526.84,359.54c-6.2,3.39-12.36,6.84-18.63,10.11-1,.5-2.38.11-3.59.13.12-1.34-.28-3.24.45-3.91a18.87,18.87,0,0,1,6.4-4.1c4.73-1.58,9.65-2.6,14.49-3.84Z"/><path class="cls-1" d="M416.48,502.47,394,495c2-3.28,4.62-4.25,8.67-2.36,5.07,2.36,9.83,5.39,14.73,8.12Z"/><path class="cls-1" d="M359.71,71.95c3.39,6.21,6.84,12.4,10.13,18.66.48.92.22,2.22.3,3.35-1.26,0-2.92.46-3.69-.16a11.4,11.4,0,0,1-3.83-4.74c-1.77-5.32-3-10.82-4.52-16.24Z"/><path class="cls-1" d="M182.14,499.88q8-4,16-8.06c.44-.22,1-.56,1.39-.41,1.59.68,3.12,1.51,4.67,2.29-1.29,1-2.45,2.34-3.9,2.83-5.63,1.88-11.35,3.48-17,5.19Z"/><path class="cls-1" d="M59.38,218.09,61,219.81l-9.33,12.75C52.73,226.89,55.93,222.42,59.38,218.09Z"/><path class="cls-1" d="M539.49,221.31l1.54-1.59,7.48,11.9-1.15.73Z"/><path class="cls-1" d="M59.53,377.29l-2.56.09L50.55,367l1.09-.69Z"/><path class="cls-1" d="M541.77,377.4l-1.77-.94,7.05-10.26,1.13.66Z"/><path class="cls-1" d="M221.4,541.6l1.93-1.21,9.21,6.59-.63,1.08Z"/><path class="cls-1" d="M221.5,59.37l-.09-2.56,9-5.09.7.59Z"/><path class="cls-1" d="M182.14,499.88l1.09,1.84-9.85,3.75-.24-.77Z"/><path class="cls-1" d="M375.14,55.57l-1.49.89-7.43-4.83.7-1.13Z"/><path class="cls-1" d="M70.88,366l-1.59,1.46L63.45,362l.82-.9Z"/><path class="cls-1" d="M366.17,527.95l1.55,1.61-6.71,6-.41-.5Z"/><path class="cls-1" d="M232.79,70.67l-1.55-1.61,6.71-6,.41.5Z"/><path class="cls-1" d="M528.12,232.62l1.61-1.54,6,5.69-.89.89Z"/><path class="cls-1" d="M535.77,373.64l-1.53-1.57L539,366.9l.57.79Z"/><path class="cls-1" d="M416.48,502.47l.94-1.73,7.06,3.63-.31.93Z"/><path class="cls-1" d="M373.8,63l-1.59,1.58-5.11-4.86.75-.57Z"/><path class="cls-1" d="M63.2,225l1.58,1.6-4.85,5.11-.58-.74Z"/><path class="cls-1" d="M359.71,71.95l-1.61.87-2.37-7.12.79-.41Z"/><path class="cls-1" d="M529.81,367l-1-1.75,5.06-3.65.89,1.11Z"/><path class="cls-1" d="M231.76,529.68l1.81-1,3.59,5.09-1.06.84Z"/><path class="cls-1" d="M526.84,359.54l-.87-1.61,7.21-2.39.38.89Z"/><path class="cls-1" d="M366.74,68.34l-1.33,1.59-3.64-5.08,1-.81Z"/><path class="cls-1" d="M230.39,51.72l2-.76.25.61-1.54.74Z"/><path class="cls-1" d="M58.78,233.38l.58-2.43.58.74-1.22,1.6Z"/><path class="cls-1" d="M231.71,538.8l1.55.84-.19.46-1.85-.77A6.7,6.7,0,0,1,231.71,538.8Z"/><path class="cls-1" d="M360.6,62.59l1.3,1.08-.36.48-1.36-1A2.86,2.86,0,0,0,360.6,62.59Z"/><path class="cls-1" d="M237.95,63l.92-.63-.51,1.13Z"/><path class="cls-1" d="M361,535.6l-.92.63.51-1.13Z"/><path class="cls-1" d="M367.09,59.75l-.88-.92,1.63.35Z"/><path class="cls-1" d="M536,360.37l-.86,1.34-.51-.37,1.1-1.28Z"/><path class="cls-1" d="M63,359.42a5.21,5.21,0,0,1,.49,1c0,.09-.29.29-.44.43a3.59,3.59,0,0,1-.49-.85C62.5,359.84,62.8,359.63,63,359.42Z"/><path class="cls-1" d="M539,366.9,540,366l-.35,1.66Z"/><path class="cls-1" d="M238.43,535.82l-1.34-.86.37-.51,1.28,1.1Z"/><path class="cls-1" d="M360.18,63.11l-.49-.62.92.1A2.88,2.88,0,0,1,360.18,63.11Z"/><path class="cls-1" d="M58.71,233.29l-.5.55-.1-.31.67-.15Z"/><path class="cls-1" d="M365.39,58.14l-.14.24-.38-.26c.09-.08.18-.22.27-.21S365.31,58.06,365.39,58.14Z"/><path class="cls-1" d="M238.74,535.55l.51.58-.83-.31Z"/><path class="cls-1" d="M535.72,360l.59-.5-.32.82Z"/><path class="cls-1" d="M540.85,364.91l-.13.26-.36-.28.26-.26Z"/><path class="cls-1" d="M495.28,299.35c0,26.12,0,52.25-.09,78.37a8,8,0,0,1-2.14,5.06q-55,55.27-110.28,110.31A7.47,7.47,0,0,1,378,495q-78.56.15-157.11,0a7.46,7.46,0,0,1-4.76-2q-55.25-55-110.28-110.31a8,8,0,0,1-2.08-5.09q-.16-78.37,0-156.74a8,8,0,0,1,2.14-5.06q54.9-55.13,110-110a8,8,0,0,1,5-2.21q78.56-.17,157.11,0a7.46,7.46,0,0,1,4.76,2q55.25,55,110.28,110.31a8,8,0,0,1,2.08,5.09C495.32,247.11,495.28,273.23,495.28,299.35ZM299.65,493.16c25.86,0,51.73,0,77.59-.07a6.58,6.58,0,0,0,4.15-1.7c7.71-7.49,15.27-15.12,22.87-22.71q43.48-43.46,86.89-87a8.54,8.54,0,0,0,2.27-5.44q.18-77.05,0-154.1a7.54,7.54,0,0,0-1.94-4.83q-54.56-54.84-109.26-109.54A8,8,0,0,0,376,105.2q-76.49.12-153,0a7.93,7.93,0,0,0-6.23,2.48q-54.39,54.54-108.92,108.93a7.93,7.93,0,0,0-2.53,6.2q.11,75.74,0,151.47a11.22,11.22,0,0,0,3.61,8.78Q163,436.89,217,490.82a8.58,8.58,0,0,0,5.47,2.24C248.19,493.21,273.92,493.16,299.65,493.16Z"/><path class="cls-1" d="M299.65,493.16c-25.73,0-51.45,0-77.18-.1a8.58,8.58,0,0,1-5.47-2.24Q162.91,437,109,383.08a11.22,11.22,0,0,1-3.61-8.78q.17-75.74,0-151.47a7.93,7.93,0,0,1,2.53-6.2q54.54-54.39,108.92-108.93a7.93,7.93,0,0,1,6.23-2.48q76.49.11,153,0a8,8,0,0,1,6.21,2.56q54.63,54.77,109.26,109.54a7.54,7.54,0,0,1,1.94,4.83q.15,77.05,0,154.1a8.54,8.54,0,0,1-2.27,5.44q-43.35,43.6-86.89,87c-7.6,7.6-15.17,15.23-22.87,22.71a6.58,6.58,0,0,1-4.15,1.7C351.38,493.19,325.51,493.16,299.65,493.16Zm-.57-5.52c25,0,50,0,75-.08a8.06,8.06,0,0,0,5.19-1.95Q432.65,432.44,485.84,379a7.07,7.07,0,0,0,1.89-4.47c.13-16,.08-32,.08-48q0-51.35-.07-102.7a6.56,6.56,0,0,0-1.64-4.22q-53.33-53.53-106.86-106.86a6.55,6.55,0,0,0-4.18-1.73q-75.56-.13-151.12,0a6.55,6.55,0,0,0-4.19,1.72q-53.52,53.34-106.87,106.85a6.06,6.06,0,0,0-1.65,3.85q-.12,75.75,0,151.5a6,6,0,0,0,1.61,3.81Q166.31,432.43,220,485.91a6,6,0,0,0,3.79,1.66C248.85,487.66,274,487.64,299.07,487.64Z"/></g></g></svg>